<svg width="2000" height="100" xmlns="http://www.w3.org/2000/svg" preserveAspectRatio="xMinYMin meet">

 <g>
  <title>Layer 1</title>
  <path id="svg_1" d="m126,34c-6,0 -12,1 -17,4c-25,13 -27,49 -3,64c11,7 15,16 6,16c-4,0 -25,11 -33,18c-7,6 -7,7 -8,24c-1,11 -3,20 -6,25c-2,6 -3,9 -1,10c3,5 22,13 29,13c5,0 6,1 6,5c0,7 -6,18 -12,26c-5,5 -18,12 -30,16c-4,1 -4,3 -3,13c2,16 5,26 10,31c3,3 6,4 17,3c8,-1 15,-2 16,-2c2,-2 -5,-12 -11,-14c-2,-1 -5,-4 -5,-6c-1,-1 -2,-4 -3,-6c-1,-3 2,-5 12,-11c11,-7 13,-9 19,-22c3,-8 7,-15 8,-15c4,0 18,22 22,33c2,6 5,16 6,22l1,12l7,-1c16,-2 42,-20 42,-29c0,-3 -1,-3 -11,-2c-6,0 -14,2 -17,2c-4,1 -5,1 -8,-8c-2,-6 -8,-16 -13,-24l-8,-13l7,-14c3,-8 6,-18 6,-22l0,-6l5,4l5,5l6,-6c3,-3 7,-8 9,-10c1,-2 7,-6 12,-9l10,-5l-5,-7c-3,-4 -6,-9 -6,-11c-1,-5 -7,-8 -12,-5c-2,1 -5,2 -6,2c-2,0 -4,3 -6,7c-3,6 -3,7 0,10c2,2 2,3 0,5c-3,2 -4,0 -11,-10c-4,-7 -10,-16 -13,-20c-8,-10 -7,-16 6,-22c22,-11 27,-40 11,-59c-7,-7 -19,-11 -30,-11zm-1,2l2,0c16,1 32,13 36,29c3,16 -9,35 -25,39c-7,3 -8,3 -7,10c1,4 3,10 7,14c3,3 9,12 13,20c4,7 7,14 8,14c0,1 2,-1 4,-2c2,-2 5,-4 6,-4c2,0 2,-1 -1,-5c-5,-4 -5,-5 -2,-10c2,-3 3,-4 3,-3c0,2 2,2 6,-2c3,-3 5,-4 7,-2s2,3 0,7c-2,3 -2,6 0,6c1,1 1,0 1,-1c-1,-5 4,-3 7,2c3,6 3,7 1,8c-1,1 -4,2 -5,2c-2,0 -8,5 -14,12l-11,11l-14,-15c-8,-9 -15,-16 -16,-16s3,5 8,11c11,11 11,12 10,21c-2,11 -11,31 -17,36c-3,3 -7,5 -11,5c-7,0 -8,1 -14,16c-6,13 -9,16 -17,21c-16,10 -16,9 -13,18c1,5 4,8 6,9s5,3 8,5c3,4 3,5 0,6c-5,4 -21,3 -26,-2c-7,-7 -11,-40 -5,-40c5,0 20,-8 27,-15c9,-8 15,-20 16,-32c0,-6 2,-16 5,-22c7,-15 10,-29 9,-49c0,-9 1,-20 1,-25c2,-8 1,-8 -7,-12c-14,-6 -22,-22 -19,-38c2,-8 12,-20 21,-24c4,-2 8,-3 12,-3zm-12,84l0,8c0,8 0,8 -13,15l-13,6l0,16c0,14 0,15 -4,15c-2,0 -4,1 -4,2s-1,2 -3,2c-1,0 -3,-1 -4,-2c0,-1 1,-2 2,-2c2,0 3,-1 3,-2s-1,-2 -2,-2c-2,0 -3,-2 -2,-10c2,-23 3,-24 16,-33c6,-4 15,-9 18,-10l6,-3zm-1,21l2,4c2,7 -2,26 -8,40c-3,7 -5,13 -6,13c0,0 -1,-3 -1,-7c0,-6 -2,-8 -5,-10c-4,-2 -5,-3 -5,-16l0,-14l12,-5l11,-5zm-26,43l3,0c4,0 6,1 6,2c0,3 -5,3 -11,0c-2,-1 -2,-1 2,-2zm-15,2c1,0 2,1 2,3c0,1 -1,4 -1,6c-2,3 -2,3 -4,1s-2,-5 -1,-7c0,-2 3,-3 4,-3zm8,2c1,0 2,3 2,7c0,7 -2,9 -5,5s-1,-12 3,-12zm7,2c8,0 12,3 11,9s-3,8 -10,6c-4,-1 -5,-15 -1,-15zm49,30l7,9c3,5 9,16 13,24c3,9 7,15 8,15c0,0 6,-1 12,-3s12,-3 15,-2c4,0 4,0 -1,7c-3,3 -11,9 -18,12s-15,6 -18,7c-5,1 -5,1 -6,-11c-2,-13 -8,-29 -17,-42l-6,-9l6,-3l5,-4zm236,-172c-13,0 -21,4 -29,13c-11,12 -13,27 -5,42c3,5 16,17 20,17c1,0 3,2 3,4c2,3 -2,6 -7,6c-2,0 -35,15 -37,17c-1,1 -3,8 -5,16c-2,11 -5,17 -8,19c-2,1 -5,5 -7,9c-3,6 -3,6 3,11c8,7 26,15 29,13c3,-4 4,-25 1,-27c-2,-1 -2,-4 0,-15l1,-13l14,-5l13,-4l1,5c1,10 -3,29 -8,41c-6,13 -6,19 -4,41c1,5 1,10 0,10s-7,-1 -15,-3c-20,-4 -19,-4 -17,8c2,13 9,29 17,38c9,10 11,7 11,-10l0,-13l10,1c12,0 10,2 15,-23c2,-12 6,-11 13,2c6,11 6,11 2,18c-1,4 -6,11 -9,16s-5,9 -5,10c1,0 9,1 19,2c18,1 40,-2 40,-6c0,-3 -8,-7 -18,-10c-5,-1 -9,-3 -9,-3c-1,0 1,-3 2,-7c5,-9 4,-14 -7,-30l-9,-15l4,-12c3,-6 5,-15 5,-20c0,-7 1,-7 4,-4c7,6 13,4 27,-9c4,-3 11,-7 16,-9s9,-4 9,-5c0,0 -2,-5 -5,-9c-2,-4 -5,-8 -5,-10c0,-1 -1,-3 -3,-5s-4,-2 -7,0c-2,1 -5,2 -7,2c-3,0 -9,11 -8,15c0,3 -5,11 -8,11c-1,0 -3,-3 -6,-7c-2,-4 -8,-12 -14,-18c-12,-13 -13,-18 -3,-23c11,-5 20,-15 22,-25c7,-24 -11,-47 -36,-47zm0,3c12,0 24,6 30,16c10,16 3,41 -14,49c-5,2 -10,4 -11,4c-4,0 1,17 6,21c3,2 10,10 15,17s9,14 10,14c0,1 3,-1 6,-4s7,-6 8,-6c2,0 2,-1 0,-4c-3,-3 -3,-4 -1,-9c1,-2 3,-5 4,-5s1,1 0,2c-2,4 1,2 6,-2c3,-3 4,-4 7,-2c1,2 2,4 1,6c0,2 1,4 2,5c2,1 3,2 2,3c-1,2 -3,1 -6,-2c-5,-4 -5,-4 0,2c4,4 7,5 8,4c1,-2 1,-2 2,0c2,3 0,5 -9,8c-3,2 -9,5 -13,8c-3,3 -9,7 -13,9l-6,4l-15,-16c-8,-9 -15,-15 -15,-14s5,6 10,12c9,10 9,10 8,21c-2,19 -18,46 -25,41c-3,-1 -5,4 -5,13c0,4 0,11 -1,14c-1,6 -1,6 -13,6c-16,0 -17,0 -13,2c3,2 3,5 3,13c0,6 -1,11 -2,11c-3,0 -14,-17 -18,-29c-5,-16 -5,-19 0,-18c7,2 22,5 26,5c6,0 8,-12 3,-23c-3,-9 -2,-14 7,-35c5,-11 5,-16 6,-36c0,-12 1,-26 1,-29c2,-6 1,-7 -5,-10c-15,-7 -22,-17 -22,-32c0,-11 4,-18 13,-26c7,-6 15,-8 23,-8zm-16,81c1,0 2,3 2,8l0,7l-14,5c-8,3 -14,6 -15,7c0,1 -2,7 -3,14l-2,12s-4,1 -9,2c-7,1 -9,1 -9,-2c0,-2 1,-3 3,-2s3,0 3,-3c0,-2 2,-10 4,-18l3,-13l17,-8c10,-5 19,-9 20,-9zm-54,56c1,0 2,1 4,2s8,4 13,6c9,3 9,4 9,9c-1,8 -3,8 -14,3c-6,-4 -8,-6 -8,-9s0,-3 -1,-1c-3,3 -7,-2 -5,-7c0,-2 1,-3 2,-3zm16,1c3,0 9,1 10,2l0,3c-1,2 -12,-2 -12,-4c0,0 1,-1 2,-1zm67,38c1,0 2,1 3,4c2,2 7,9 11,15l6,10l-4,10l-4,10c-1,1 3,2 7,3s10,3 14,5c6,3 6,3 3,4c-4,2 -47,3 -47,1c0,0 4,-6 7,-13c4,-7 7,-15 7,-17s-2,-9 -6,-14c-5,-11 -5,-11 -1,-15c2,-2 3,-3 4,-3zm231,-194c-5,0 -10,1 -15,3c-28,13 -30,50 -3,66c8,4 9,5 7,10c0,3 -1,9 -2,13c0,5 -3,15 -7,24l-8,15l4,8c4,7 4,8 1,15c-3,9 -3,21 0,26c2,2 3,8 3,12c0,7 0,7 -6,6s-6,-1 -5,3c1,3 3,8 5,12c2,6 2,7 -2,15c-2,4 -7,12 -11,18c-4,5 -7,10 -7,11s3,2 6,3c18,3 53,0 53,-5c0,-1 -3,-3 -5,-5c-4,-3 -5,-6 -6,-15l0,-11l6,-1c17,-4 19,-6 18,-13c-1,-3 -4,-10 -7,-16c-4,-5 -5,-9 -4,-8c2,0 5,-1 6,-3c3,-3 3,-5 2,-12c-2,-6 -1,-10 1,-17c5,-13 2,-31 -7,-52s-10,-29 -6,-29c2,0 6,-2 11,-5c18,-11 23,-35 11,-51c-8,-12 -20,-18 -33,-17zm2,2c7,0 16,3 23,9c12,10 15,26 7,42c-4,9 -17,18 -26,18c-3,0 -4,1 -2,3c1,1 2,4 2,5c0,2 3,10 6,17c10,21 13,38 10,52c-2,12 -4,15 -9,11c-1,-1 -3,-2 -4,-1s-6,-5 -10,-12c-8,-14 -8,-15 5,-35c3,-5 4,-8 2,-6c-5,4 -16,23 -16,27c0,2 4,9 7,16c6,10 7,13 5,15s-2,2 0,2c1,0 3,-1 3,-2c2,-3 9,-2 12,2c4,4 4,4 0,3c-3,-1 -3,-1 2,5c4,5 4,7 1,8c-4,3 -5,3 -8,-1c-2,-3 -2,-3 1,-5c1,-1 2,-2 0,-2c-3,0 -13,10 -12,12c1,0 3,-1 4,-3c2,-2 4,-3 5,-2s0,3 -2,4c-7,5 -11,4 -13,-2c0,-3 -4,-14 -8,-24s-8,-20 -9,-23c-2,-4 -1,-8 7,-23c4,-10 9,-19 9,-20c1,-1 0,-1 -2,0s-2,0 -1,-5c3,-14 3,-14 -6,-20c-12,-6 -17,-13 -19,-25c-3,-23 16,-40 36,-40zm-21,148l4,9c2,5 5,13 7,19c1,5 1,9 1,9c-5,0 -11,-4 -13,-8c-4,-6 -4,-10 -1,-21l2,-8zm5,37c3,0 8,7 8,11c0,3 -6,5 -8,2c-2,-2 -2,-13 0,-13zm22,1c3,0 5,3 9,10c9,15 9,16 -2,20c-5,1 -12,3 -15,4c-5,1 -5,2 -3,5c2,2 3,5 3,10c-1,10 -4,10 -12,-1c-6,-8 -16,-30 -16,-35c0,-1 5,0 11,1c10,3 18,4 22,3c1,0 -1,-3 -4,-7l-5,-6l7,-3c2,0 4,-1 5,-1zm-10,11c2,0 2,1 2,2s0,2 -2,2c-1,0 -2,-1 -2,-2s1,-2 2,-2zm-21,24l4,6c2,4 3,9 3,11c-1,4 -1,5 4,6c4,1 10,3 14,4c7,3 7,4 3,5c-4,2 -47,3 -47,1c0,0 3,-5 7,-11c4,-5 8,-12 9,-16l3,-6zm279,-237c-22,-1 -42,19 -39,42c2,12 8,20 19,27c7,4 10,8 10,10c0,3 -7,11 -19,23l-19,18l2,21c2,16 2,24 0,32c-3,12 -1,14 10,14c3,0 6,1 6,2c0,3 -20,31 -32,45l-12,13l4,10c3,5 7,11 9,14c4,4 5,5 20,3c19,-1 23,-3 15,-10c-3,-3 -7,-5 -9,-5s-6,-1 -7,-4c-4,-3 -3,-4 7,-20c6,-9 14,-22 18,-29c5,-10 8,-13 12,-14c6,-1 17,4 17,8c0,0 -3,2 -8,3c-11,4 -12,5 -10,10c9,17 45,41 44,30c0,-4 -7,-19 -9,-21c-5,-2 -3,-6 5,-11c5,-3 8,-6 8,-8c0,-1 -6,-8 -13,-15l-13,-13l3,-9c4,-8 4,-8 12,-7c5,0 10,2 12,3c8,6 13,4 18,-6c2,-5 4,-13 5,-18c1,-7 0,-8 -4,-9c-5,-2 -18,0 -21,3c-1,1 -2,3 -1,5s-1,2 -7,2c-6,-1 -8,-2 -8,-6c-1,-7 -9,-30 -14,-40c-4,-8 -4,-20 -1,-20c1,0 6,-3 11,-6c24,-16 21,-52 -6,-64c-5,-2 -10,-3 -15,-3zm0,2c8,0 16,3 22,9c13,10 16,28 8,43c-5,8 -18,17 -26,17c-3,0 -4,1 -2,2c1,0 2,4 3,8s4,15 9,25c6,16 7,20 7,34c0,13 0,18 -5,27l-5,10l6,3c9,6 21,19 21,23c0,2 -3,6 -11,10s-10,6 -7,6s6,3 9,9c3,5 5,10 5,12c-1,5 -16,-3 -27,-16c-11,-11 -13,-15 -7,-16c2,-1 7,-3 11,-5l8,-3l-9,-6c-6,-4 -11,-5 -17,-5l-9,0l1,-9c1,-9 -1,-16 -5,-19c-1,-1 -1,-4 2,-8c4,-8 8,-25 8,-32c0,-3 2,-6 3,-7c2,-1 3,-2 3,-3c0,-2 -14,6 -24,13l-4,3l3,17c3,15 3,16 0,19c-3,2 -3,3 2,2c4,-1 6,0 8,3c4,5 4,8 1,6c-2,-1 -2,0 -1,5c2,8 -4,11 -8,5c-2,-3 -3,-3 -4,-1s-12,2 -14,0c0,-1 1,-5 2,-10c1,-6 1,-16 0,-30l-2,-22l14,-14c8,-7 18,-15 21,-18c4,-2 6,-4 5,-4c-2,0 -3,-2 -3,-6c0,-6 -1,-8 -8,-11c-5,-2 -11,-7 -14,-12c-7,-10 -8,-27 -1,-37c8,-11 19,-17 31,-17zm-13,115c2,0 -1,17 -5,28c-2,6 -5,10 -5,10c-1,0 -3,-4 -3,-9c-1,-5 -2,-11 -3,-13c-1,-4 1,-6 7,-10c5,-3 9,-6 9,-6zm71,14c7,0 8,3 4,10c-2,4 -10,6 -13,2c0,-1 0,-4 1,-7c1,-4 2,-5 8,-5zm-14,2c2,0 2,2 2,5c0,2 -1,6 -2,7c-1,2 -2,1 -2,-4c0,-4 1,-8 2,-8zm-10,10c4,0 6,1 6,3s1,3 3,4c2,0 0,7 -3,7c-1,0 -2,-1 -2,-3c0,-3 0,-3 -2,-1c-3,4 -12,3 -12,-1c0,-6 3,-9 10,-9zm23,5c3,0 3,0 3,2s-2,3 -7,3c-9,0 -8,-4 1,-5l3,0zm-3,7c3,0 3,1 1,5c0,2 -2,3 -2,3c-10,-2 -11,-6 -2,-7c1,-1 3,-1 3,-1zm-83,23c-2,0 -6,0 -9,1c-4,1 -4,2 -1,2s7,-1 9,-2c4,-1 5,-1 1,-1zm10,12c1,0 2,1 3,1c2,1 1,5 -7,18c-5,10 -13,23 -18,30l-9,13l5,4c2,3 6,5 7,5c2,0 6,2 8,3c4,3 4,4 2,5c-1,1 -9,2 -16,2c-13,0 -14,0 -18,-6c-2,-3 -5,-8 -6,-12c-2,-5 -1,-6 9,-18c6,-6 15,-18 20,-26c6,-8 11,-15 11,-16c2,-2 6,-3 9,-3zm271,-175c-19,0 -36,14 -37,33c-1,6 -1,13 0,16c2,6 12,19 20,22c9,5 7,9 -9,18c-8,5 -18,11 -22,14c-7,5 -7,5 -9,22c0,9 -2,22 -4,30c-2,7 -2,14 -2,15c1,1 5,3 9,3c4,1 8,3 9,4c2,4 11,-2 11,-7c0,-3 1,-6 2,-7c3,-2 -2,-17 -6,-17c-1,0 -2,-6 -2,-14l0,-14l11,-5c15,-7 15,-6 15,5s-3,25 -10,39c-3,7 -4,12 -3,20c2,18 -11,31 -35,34c-4,1 -8,3 -9,5c-2,4 3,36 5,39c6,7 32,6 32,-1c0,-2 -2,-5 -4,-7c-13,-11 -15,-16 -6,-17c10,-2 19,-10 26,-22l6,-12l7,8c13,14 21,37 21,56l0,9l7,-2c23,-4 53,-29 40,-34c-3,-1 -16,1 -23,4c-2,1 -4,-2 -9,-12c-3,-8 -9,-19 -14,-26l-8,-13l7,-14c5,-10 7,-17 8,-26c0,-6 1,-12 2,-12c0,0 3,2 7,4l7,4l8,-7c4,-4 9,-7 10,-7c6,0 12,-5 12,-10s-5,-19 -10,-26c-3,-4 -3,-5 -9,-2c-3,2 -7,6 -10,10c-4,7 -4,7 -1,11c2,2 2,4 0,6c-2,3 -4,1 -18,-13c-18,-20 -20,-26 -9,-31c33,-13 34,-54 2,-69c-5,-2 -10,-4 -15,-4zm-1,4c21,-1 36,13 36,33c0,6 -2,14 -3,17c-4,8 -15,16 -23,17c-6,2 -6,2 -4,11c0,5 3,14 6,20c8,17 12,35 10,46c-1,10 -12,34 -15,34s-2,4 6,14c5,7 17,29 24,44c0,0 5,-1 12,-3c9,-2 13,-3 15,-1c3,3 -11,17 -24,23c-21,9 -21,9 -21,-1c0,-23 -9,-44 -28,-63c-14,-13 -15,-14 -15,-23c0,-5 2,-13 6,-20c6,-12 10,-35 8,-41c-1,-2 0,-4 2,-5c5,-4 -11,0 -22,5l-11,5l0,15c0,12 0,15 -3,17s-3,2 2,2c5,-1 6,0 8,4c2,6 2,10 -1,6c-1,-2 -1,-1 -1,5s0,8 -3,9c-2,0 -4,-1 -5,-5c-1,-3 -2,-5 -6,-5c-2,0 -5,1 -6,2c0,2 1,2 4,1s5,0 5,1c0,2 -11,3 -12,0c-1,0 0,-5 1,-10c2,-5 4,-18 5,-28c0,-11 1,-20 2,-21c3,-4 39,-25 44,-25c4,0 5,0 3,-1s-3,-4 -3,-7s-3,-5 -7,-7c-20,-8 -27,-35 -14,-52c7,-9 16,-13 28,-13zm56,87c1,0 3,2 4,4c4,5 4,6 -1,10c-6,7 -7,6 -10,-1c-2,-6 -1,-9 4,-12c1,0 2,0 3,-1zm-40,10c1,-1 5,4 11,10c10,12 12,13 16,8c4,-4 16,1 13,6c0,1 -2,0 -4,-1c-3,-2 -3,-2 -2,1s0,5 -3,9c-5,5 -7,5 -15,0c-5,-4 -8,-8 -12,-19l-4,-14zm27,3c1,-1 3,1 5,4c5,8 4,10 -2,3c-3,-2 -4,-5 -4,-7l1,0zm20,0c2,0 2,1 3,3s0,5 -3,7s-4,4 -2,4c1,0 3,-1 4,-2c2,-2 3,-2 4,1c0,2 0,4 -2,5c-5,3 -7,3 -9,-4c-3,-5 -3,-6 0,-10c3,-2 4,-3 5,-4zm-84,84c2,0 3,1 4,3c3,3 2,5 -2,13c-5,13 -13,19 -24,23c-5,1 -9,2 -9,2c-2,2 5,15 8,16c5,2 10,7 8,9c0,1 -6,2 -13,2c-14,0 -16,-2 -16,-24l-1,-16l11,-3c15,-4 23,-9 27,-17c3,-5 5,-8 7,-8zm272,-169c-10,1 -19,4 -26,12c-17,19 -14,45 8,57c9,6 10,9 5,10c-9,3 -21,9 -31,16c-10,6 -11,8 -17,22c-3,8 -8,20 -11,26c-3,7 -6,13 -6,14c0,2 21,11 25,11c2,0 4,-1 5,-3c0,-2 2,-5 3,-7c2,-5 2,-13 -1,-18c-2,-4 -1,-8 1,-16c3,-10 4,-11 12,-14c5,-2 11,-4 15,-5c6,-1 6,-1 6,6c0,10 -4,25 -10,38c-4,10 -5,22 -2,29c1,2 2,6 2,9c0,5 0,5 -7,5c-4,0 -11,-1 -16,-3c-4,-1 -8,-3 -8,-3c-2,0 2,21 7,30c5,13 17,25 20,23c3,-1 2,-14 -1,-21c-1,-3 0,-4 5,-4c3,0 9,-1 12,-2c6,-2 7,-3 6,-11c0,-5 0,-9 1,-9s4,4 7,9c4,7 5,11 3,16c-1,6 -7,21 -12,32c-1,0 2,2 6,3c8,3 38,1 46,-2c3,-1 5,-3 5,-4c-2,-5 -11,-10 -19,-11l-8,-1l4,-14c4,-14 4,-14 0,-20c-2,-2 -7,-9 -10,-14l-7,-9l7,-14c5,-10 6,-17 6,-25c0,-7 1,-12 2,-12s5,2 9,3c8,3 8,3 16,-2c5,-2 9,-5 10,-5c2,0 5,-1 9,-3c5,-3 6,-4 4,-9c-1,-8 -7,-21 -11,-27c-3,-4 -3,-4 -11,3c-10,10 -12,14 -7,18c3,4 3,4 0,5c-2,1 -9,-3 -19,-12c-8,-7 -16,-13 -17,-13s-2,-2 -2,-5s2,-5 5,-6c7,-1 19,-12 23,-20c4,-7 4,-24 0,-32c-7,-14 -22,-21 -36,-21zm1,3c8,0 16,3 23,9c12,9 16,25 10,39c-4,9 -16,19 -24,20c-7,2 -7,2 -6,7c1,3 4,10 7,15c15,31 15,58 -1,79c-2,3 0,6 8,18l11,15l-2,11c-2,6 -3,13 -4,15c-1,4 0,5 8,6c9,1 20,8 17,10c0,0 -7,2 -14,3c-14,2 -17,2 -28,0c-8,-1 -8,-2 -2,-15c3,-5 5,-14 6,-19c1,-7 0,-10 -5,-18c-4,-5 -11,-12 -17,-16c-14,-9 -15,-15 -5,-36c4,-11 6,-19 7,-30l1,-16l-7,1c-4,1 -12,4 -18,7c-10,5 -11,6 -14,18c-3,8 -5,12 -7,12c-1,0 -2,1 -2,2c1,1 3,2 5,2c4,0 6,4 6,9c0,2 0,3 -2,2c-1,0 -2,1 -2,3c0,10 -7,14 -9,5c-1,-3 -2,-4 -2,-3c-2,2 -9,2 -12,-1c-2,0 1,-8 5,-17s9,-21 11,-26c3,-7 6,-11 13,-16c11,-8 28,-16 34,-16c3,0 4,-1 4,-5s-2,-6 -9,-9c-11,-5 -19,-16 -19,-29s2,-18 12,-27c7,-6 15,-9 23,-9zm59,82c1,0 2,1 3,2c2,3 3,5 3,6c0,2 -2,5 -4,7l-5,5l-3,-6c-3,-6 -3,-6 2,-11c2,-2 3,-3 4,-3zm-45,6s7,5 14,12c12,10 14,12 18,10c4,-3 13,0 13,4c0,2 0,3 -2,3c-1,0 -2,-1 -2,-2s0,-2 -1,-2s-2,2 -1,4c0,2 -1,4 -5,6c-2,1 -6,2 -7,2c-5,0 -18,-6 -18,-8c0,-1 -2,-8 -5,-15s-5,-13 -4,-14zm32,7c1,0 3,1 5,4c3,3 4,6 3,6c-3,0 -9,-7 -8,-10zm21,1c3,0 3,6 -2,9c-2,2 -4,4 -2,4c1,0 3,-1 3,-2c2,-3 5,-2 5,2c0,2 -1,4 -3,5c-4,2 -4,2 -8,-5c-3,-6 -2,-9 4,-12c1,0 2,-1 3,-1zm-84,85l1,0c5,1 7,4 8,14c0,8 0,9 -5,12c-3,1 -8,2 -12,1c-8,-1 -9,-1 -5,9c1,3 1,8 1,11l-1,6l-6,-7c-7,-8 -15,-27 -15,-35c0,-4 0,-4 11,-1c16,4 20,3 20,-5c0,-4 1,-5 3,-5zm258,-206l-6,0c-35,5 -44,50 -15,68c11,7 12,10 9,17c-4,7 -10,44 -11,59c0,7 -1,16 -3,21c-2,6 -2,10 0,15c4,10 3,23 -1,23c-3,0 -3,2 -1,9c3,7 -2,27 -11,46c-5,13 -5,14 3,16c8,1 37,0 44,-3c5,-2 6,-3 4,-6c-3,-5 -14,-10 -20,-10c-5,0 -6,0 -4,-5c1,-8 1,-8 8,-3c3,2 7,4 8,4c3,0 3,-9 -1,-17c-1,-4 -3,-8 -3,-8s3,0 7,1c6,2 15,1 17,-1c1,0 0,-7 -2,-15c-1,-8 -2,-17 -3,-20c0,-3 -1,-7 -3,-9s-1,-5 3,-16c4,-8 5,-17 5,-24c0,-10 -1,-16 -8,-43c-1,-5 -4,-10 -6,-12c-5,-5 -3,-13 3,-15c13,-4 25,-20 25,-35c0,-20 -17,-37 -38,-37zm-1,3c7,0 14,1 17,3s8,6 11,9c16,19 6,51 -18,55c-6,2 -6,2 -5,9c1,4 4,13 7,20c12,27 14,44 7,63c-7,17 -10,17 -19,-4l-7,-16l6,-16c8,-23 7,-22 5,-20c-2,1 -5,10 -8,19l-6,17l7,17c7,15 8,17 5,20c-4,3 -2,3 4,0c3,-2 5,-1 8,1c4,4 5,8 1,6c-3,-2 -2,1 2,6c2,4 2,6 0,8c-2,3 -3,3 -6,0c-2,-2 -3,-2 -4,-1c0,1 -4,3 -7,3c-7,2 -7,2 -7,-7c0,-4 -3,-18 -7,-29l-7,-22l5,-25c2,-14 5,-28 7,-31c4,-12 3,-15 -8,-21c-7,-4 -11,-8 -14,-14c-8,-17 -1,-39 14,-47c4,-2 11,-3 17,-3zm-20,154c2,0 9,28 11,42c3,15 2,29 -4,49l-3,9l9,1c10,1 20,7 17,10c-3,2 -43,4 -48,2c-2,-1 -1,-4 2,-11c12,-22 19,-66 14,-79c-2,-5 -2,-9 -1,-15c2,-4 3,-8 3,-8zm30,34c-1,0 -4,2 -8,5c-3,3 -5,5 -4,5s3,-1 4,-2s4,-3 6,-5c3,-1 4,-3 2,-3zm2,13l1,0c6,0 6,1 8,10l2,10c0,2 -13,1 -19,-1c-3,-1 -6,-1 -6,-1c-1,1 1,5 2,10c2,5 3,10 3,12c-1,3 -1,3 -6,-1c-5,-3 -5,-5 -3,-11c1,-4 1,-11 1,-15c0,-6 1,-6 6,-5c6,0 6,0 6,-4c0,-3 1,-4 5,-4zm-12,1c2,0 4,1 4,2c1,1 0,2 -1,2c-2,0 -4,-1 -5,-2c0,-1 1,-2 2,-2zm260,-216c-17,0 -29,8 -36,23c-7,17 0,36 16,46c5,3 9,7 9,8c0,5 -5,16 -10,21c-3,3 -9,10 -12,15l-7,10l2,17c1,13 1,17 -1,21c-2,2 -4,7 -4,10c-2,6 -1,7 5,10c4,2 7,5 7,6c0,4 -17,38 -27,55c-12,19 -12,22 -1,36l5,7l19,-1c23,-1 26,-4 17,-12c-4,-4 -9,-6 -12,-6c-12,0 -12,-3 2,-35c7,-17 13,-32 14,-34c2,-5 13,-7 23,-4c12,4 10,6 -11,11c-2,0 9,16 15,23c8,8 20,15 26,15c4,0 2,-10 -5,-20l-5,-8l7,-3c14,-6 14,-8 -3,-24l-16,-15l4,-10c2,-6 4,-10 5,-9c11,4 32,9 34,9c3,-2 8,-26 6,-30c0,-1 -3,-2 -5,-2c-3,0 -6,-1 -7,-2c-2,-2 -15,3 -15,7c0,2 -1,2 -8,1c-5,-2 -8,-3 -8,-6c0,-4 -9,-32 -12,-39c-5,-10 -5,-16 2,-19c17,-7 25,-20 24,-38c-1,-20 -17,-34 -37,-34zm-1,3c14,-1 28,8 34,21c8,18 -3,40 -24,46c-6,2 -7,3 -6,8c0,3 3,10 6,15c2,6 6,18 7,26l2,16l10,3c6,1 11,3 11,4c2,5 4,2 3,-3c-1,-4 0,-5 4,-7c7,-2 8,-2 6,0c-1,2 1,2 5,1c5,-1 7,0 8,2s0,5 -2,6c-1,1 -2,4 -2,6s0,3 -1,3s-3,-3 -3,-6c-1,-4 -2,-6 -2,-6c-2,2 2,15 4,15c3,-1 3,4 1,6c-1,1 -14,-3 -28,-7l-26,-9l-2,-16c-3,-17 -4,-22 -6,-20c0,0 5,32 6,36c1,2 5,4 9,5c10,3 10,3 1,22c-6,12 -13,19 -21,18c-5,-1 -6,0 -13,17c-4,10 -11,27 -16,37c-8,18 -8,19 -5,23c2,2 6,3 9,3c5,0 17,9 15,11c-1,1 -9,2 -18,3c-19,1 -20,0 -27,-15l-4,-7l10,-17c18,-28 31,-58 31,-69c0,-7 2,-15 7,-24c6,-14 6,-17 7,-38c0,-12 1,-27 1,-32c2,-9 2,-9 -7,-13c-28,-13 -24,-54 6,-63c3,-1 7,-1 10,-1zm-15,95c1,-1 2,2 2,7c2,9 1,10 -5,15l-6,6l2,12c1,10 1,13 -2,20c-4,8 -7,10 -10,7s-2,-5 3,-5c4,0 4,0 1,-2c-2,-2 -4,-8 -5,-19l-1,-17l7,-9c4,-6 9,-11 11,-13c1,-2 2,-2 3,-2zm2,22c1,1 1,4 -1,12c-2,12 -5,13 -6,3c-1,-6 0,-9 3,-12c2,-2 3,-3 4,-3zm-24,48c2,0 3,2 3,6c0,7 0,7 -3,4c-4,-4 -3,-10 0,-10zm8,1c1,0 2,2 2,5c1,5 -1,9 -3,7s-2,-10 0,-12l1,0zm46,7c2,0 27,24 27,27c0,1 -8,5 -16,8c-4,1 -4,1 0,6s10,16 10,19c0,9 -26,-11 -33,-25c-2,-4 -2,-5 7,-8c6,-2 10,-4 10,-6c0,-1 -3,-4 -7,-6l-8,-3l4,-6c2,-3 5,-6 6,-6z"/>
 </g>
</svg>